<?xml version="1.0" encoding="UTF-8"?>
<svg width="1926px" height="609px" viewBox="0 0 1926 609" version="1.1" xmlns="http://www.w3.org/2000/svg" xmlns:xlink="http://www.w3.org/1999/xlink">
    <!-- Generator: Sketch 60 (88103) - https://sketch.com -->
    <title>banner-wave</title>
    <desc>Created with Sketch.</desc>
    <g id="Page-1" stroke="none" stroke-width="1" fill="none" fill-rule="evenodd">
        <g id="banner-wave" fill="#FDFAFA" fill-rule="nonzero">
            <path d="M32.5565984,104.157333 C32.5565984,104.157333 175.241329,-38.5418102 356.760329,10.3238332 C407.366329,23.9482874 434.560139,28.8472873 497.037037,63.2250667 C512.836369,71.9186153 552.7644,96.8885251 565.578813,104.157333 C618.434625,134.1391 637.807999,147.705032 680.373207,166.92818 C805.862997,223.601432 789.353416,218.070655 789.353416,218.070655 C789.353416,218.070655 909.733902,266.847203 963,285.752253 C964,284.490892 1059.0008,318.108665 1086.8458,329.109313 C1155.0998,356.075843 1209.34309,370.902504 1209.34309,370.902504 L1374.997,415.292124 L1540.441,455.598534 C1540.441,455.598534 1659.812,475.850626 1730.417,479.154556 C1801.022,482.458486 1926,471.07104 1926,462.138232 C1926,453.205425 1926,609 1926,609 L0,609 L0,140.648613 C21.7043989,116.321093 32.5565984,104.157333 32.5565984,104.157333 Z" id="Path_810"></path>
        </g>
    </g>
</svg>